<?xml version="1.0" encoding="UTF-8"?>
<svg width="64pt" height="64pt" version="1.1" viewBox="0 0 22.578 22.578" xmlns="http://www.w3.org/2000/svg" xmlns:cc="http://creativecommons.org/ns#" xmlns:dc="http://purl.org/dc/elements/1.1/" xmlns:rdf="http://www.w3.org/1999/02/22-rdf-syntax-ns#">
<metadata>
<rdf:RDF>
<cc:Work rdf:about="">
<dc:format>image/svg+xml</dc:format>
<dc:type rdf:resource="http://purl.org/dc/dcmitype/StillImage"/>
<dc:title/>
</cc:Work>
</rdf:RDF>
</metadata>
<g transform="translate(0 -274.42)">
<g transform="matrix(1.2581 0 0 1.2581 -114.49 -192.41)" stroke-linecap="round" stroke-linejoin="round" stroke-miterlimit="1.5">
<path d="m96.82 371.84c-0.22375 0-0.42623 0.10048-0.5625 0.2461-0.13627 0.14562-0.21526 0.32911-0.24609 0.52343l-0.12891 0.82227a0.26461 0.26461 0 0 0 0.25977 0.30664h7.6641a0.26461 0.26461 0 0 0 0.26172-0.30664l-0.13086-0.82031c-0.0308-0.19439-0.1098-0.37977-0.24609-0.52539-0.13629-0.14563-0.33876-0.2461-0.5625-0.2461z" clip-rule="evenodd" color="#000000" fill="#143441" fill-rule="evenodd" stroke-width=".79487"/>
<path d="m96.82 371.84c-0.22375 0-0.42649 0.10036-0.56276 0.24598-0.087 0.093-0.15059 0.20156-0.19327 0.31833 0.0717-0.0226 0.14788-0.0351 0.22686-0.0351h6.3087c0.22374 0 0.42595 0.10035 0.56224 0.24598 0.13629 0.14562 0.21518 0.33116 0.24598 0.52555l0.0956 0.5979h0.30282a0.26461 0.26461 0 0 0 0.262-0.30696l-0.13126-0.82011c-0.0308-0.19439-0.10968-0.37993-0.24597-0.52555-0.13629-0.14563-0.3385-0.24598-0.56224-0.24598z" clip-rule="evenodd" color="#000000" fill="#0f2437" fill-rule="evenodd" stroke-width=".79487"/>
<path d="m95.803 373.21c-0.42167 0-0.74609 0.3679-0.74609 0.78907v12.088c0 0.42118 0.32443 0.78906 0.74609 0.78906h8.3457c0.42176 0 0.74414-0.36803 0.74414-0.78906v-12.088c0-0.42102-0.32238-0.78907-0.74414-0.78907z" clip-rule="evenodd" color="#000000" fill="#394d5e" fill-rule="evenodd" stroke-width=".79487"/>
<path transform="matrix(.26458 0 0 .26458 0 280.07)" d="m364.41 401.68a1.0001 1.0001 0 0 0-1.0039 1.0059v5.166a1.0001 1.0001 0 0 0 1.0039 1.0039h4.082a1.0001 1.0001 0 0 0 0.92969-0.62696l2.0684-5.1758a1.0001 1.0001 0 0 0-0.92969-1.373zm20.736 0a1.0001 1.0001 0 0 0-0.92969 1.373l2.0742 5.1758a1.0001 1.0001 0 0 0 0.92188 0.62696h4.0898a1.0001 1.0001 0 0 0 1.0039-1.0039v-5.166a1.0001 1.0001 0 0 0-1.0039-1.0059z" clip-rule="evenodd" color="#000000" fill="#143441" fill-rule="evenodd" stroke-width="3.0042"/>
<path transform="matrix(.26458 0 0 .26458 0 280.07)" d="m364.41 401.68a1.0001 1.0001 0 0 0-1.0039 1.0059v2.9961h7.0332l1.0508-2.6289a1.0001 1.0001 0 0 0-0.92969-1.373zm20.736 0a1.0001 1.0001 0 0 0-0.92969 1.373l1.0527 2.6289h7.0371v-2.9961a1.0001 1.0001 0 0 0-1.0039-1.0059z" clip-rule="evenodd" color="#000000" fill="#0f2437" fill-rule="evenodd" stroke-width="3.0042"/>
<path transform="matrix(.26458 0 0 .26458 0 280.07)" d="m366.48 385.13c-1.6829 0-3.0703 1.3874-3.0703 3.0703v5.2051h28.9v-5.2051c0-1.683-1.3874-3.0703-3.0703-3.0703zm25.83 18.55v-8.2749h-28.9v8.2749z" color="#000000" fill="#808ea0" stroke-width="3.0042"/>
<path d="m96.965 377.59c-0.44527 0-0.8125 0.36723-0.8125 0.8125v2.1894c0 0.44527 0.36723 0.81055 0.8125 0.81055h6.0215c0.44527 0 0.8125-0.36528 0.8125-0.81055v-2.1894c0-0.44527-0.36723-0.8125-0.8125-0.8125z" color="#000000" fill="#808ea0" stroke-width=".79487"/>
<path d="m96.781 374.3c-0.34418 0-0.62891 0.28668-0.62891 0.63086v1.459c0 0.34418 0.28472 0.6289 0.62891 0.6289h6.3867c0.34418 0 0.63086-0.28472 0.63086-0.6289v-1.459c0-0.34418-0.28668-0.63086-0.63086-0.63086z" color="#000000" fill="#f5f6e8" stroke-width=".79487"/>
<path d="m100.25 375.4a0.26458 0.26458 0 0 0-0.26368 0.26367 0.26458 0.26458 0 0 0 0.26368 0.26562h2.1914a0.26458 0.26458 0 0 0 0.26368-0.26562 0.26458 0.26458 0 0 0-0.26368-0.26367z" clip-rule="evenodd" color="#000000" fill="#50b86b" fill-rule="evenodd" stroke-width=".79487"/>
<path d="m97.511 375.39a0.27371 0.27371 0 0 0-0.27276 0.27276 0.27371 0.27371 0 0 0 0.27276 0.27478 0.27371 0.27371 0 0 0 0.27478-0.27478 0.27371 0.27371 0 0 0-0.27478-0.27276z" clip-rule="evenodd" color="#000000" fill="#eb305d" fill-rule="evenodd" stroke-width=".79487"/>
<path d="m98.607 375.39a0.27371 0.27371 0 0 0-0.27276 0.27276 0.27371 0.27371 0 0 0 0.27276 0.27478 0.27371 0.27371 0 0 0 0.27478-0.27478 0.27371 0.27371 0 0 0-0.27478-0.27276z" clip-rule="evenodd" color="#000000" fill="#eb305d" fill-rule="evenodd" stroke-width=".79487"/>
<path transform="matrix(.26458 0 0 .26458 0 280.07)" d="m382.75 372.72a1 1 0 0 0-0.99609 1.0039 1 1 0 0 0 0.99609 0.99609h5.6992a1 1 0 0 0 1.0039-0.99609 1 1 0 0 0-1.0039-1.0039zm0 4.1406a1 1 0 0 0-0.99609 0.99609 1 1 0 0 0 0.99609 1.0039h5.6992a1 1 0 0 0 1.0039-1.0039 1 1 0 0 0-1.0039-0.99609z" clip-rule="evenodd" color="#000000" fill="#143441" fill-rule="evenodd" stroke-width="3.0042"/>
<path transform="matrix(.26458 0 0 .26458 0 280.07)" d="m368.55 373.76a1 1 0 0 0-0.99805 0.99609v2.0664a1 1 0 0 0 0.99805 1.0039 1 1 0 0 0 1.0039-1.0039v-2.0664a1 1 0 0 0-1.0039-0.99609zm4.1406 0a1 1 0 0 0-1.0039 0.99609v2.0664a1 1 0 0 0 1.0039 1.0039 1 1 0 0 0 0.9961-1.0039v-2.0664a1 1 0 0 0-0.9961-0.99609zm4.1348 0a1 1 0 0 0-0.99805 0.99609v2.0664a1 1 0 0 0 0.99805 1.0039 1 1 0 0 0 1.0039-1.0039v-2.0664a1 1 0 0 0-1.0039-0.99609z" color="#000000" fill="#f5f6e8" stroke-width="3.0042"/>
<path transform="matrix(.26458 0 0 .26458 0 280.07)" d="m378.89 389.28a1 1 0 0 0-0.99609 0.99609 1 1 0 0 0 0.99609 1.0039h8.2813a1 1 0 0 0 0.99804-1.0039 1 1 0 0 0-0.99804-0.99609zm0 8.2754a1 1 0 0 0-0.99609 0.9961 1 1 0 0 0 0.99609 1.0039h8.2813a1 1 0 0 0 0.99804-1.0039 1 1 0 0 0-0.99804-0.9961z" clip-rule="evenodd" color="#000000" fill="#143441" fill-rule="evenodd" stroke-width="3.0042"/>
<path transform="matrix(.26458 0 0 .26458 0 280.07)" d="m368.54 389.24a1.0345 1.0345 0 0 0-1.0312 1.0312 1.0345 1.0345 0 0 0 1.0312 1.0391 1.0345 1.0345 0 0 0 1.0391-1.0391 1.0345 1.0345 0 0 0-1.0391-1.0312zm4.1426 0a1.0345 1.0345 0 0 0-1.0312 1.0312 1.0345 1.0345 0 0 0 1.0312 1.0391 1.0345 1.0345 0 0 0 1.0371-1.0391 1.0345 1.0345 0 0 0-1.0371-1.0312zm-4.1426 8.2754a1.0345 1.0345 0 0 0-1.0312 1.0313 1.0345 1.0345 0 0 0 1.0312 1.0391 1.0345 1.0345 0 0 0 1.0391-1.0391 1.0345 1.0345 0 0 0-1.0391-1.0313zm4.1426 0a1.0345 1.0345 0 0 0-1.0312 1.0313 1.0345 1.0345 0 0 0 1.0312 1.0391 1.0345 1.0345 0 0 0 1.0371-1.0391 1.0345 1.0345 0 0 0-1.0371-1.0313z" clip-rule="evenodd" color="#000000" fill="#f5f6e8" fill-rule="evenodd" stroke-width="3.0042"/>
<path d="m96.781 374.31c-0.31192 0-0.57508 0.23557-0.62167 0.53589 0.03022-5e-3 0.06112-7e-3 0.0925-7e-3h6.3867c0.34418 0 0.63097 0.28678 0.63097 0.63096v1.4588c0 0.0314-2e-3 0.0623-7e-3 0.0925 0.30031-0.0466 0.53588-0.30975 0.53588-0.62167v-1.4588c0-0.34418-0.28679-0.63097-0.63097-0.63097z" color="#000000" fill="#d0d9c3" stroke-width=".79487"/>
<path d="m96.965 377.59c-0.36007 0-0.66903 0.24005-0.77411 0.56741 0.07748-0.0249 0.15973-0.0382 0.24495-0.0382h6.0218c0.44527 0 0.81236 0.36708 0.81236 0.81235v2.1895c0 0.0846-0.0132 0.16651-0.0377 0.2434 0.32712-0.10474 0.56689-0.41266 0.56689-0.77256v-2.1895c0-0.44527-0.36709-0.81236-0.81236-0.81236z" color="#000000" fill="#143441" stroke-width=".79487"/>
<path d="m103.8 386.88v-4.0988c0-0.44527-0.36709-0.81236-0.81236-0.81236l-6.0219-4e-5c-0.36007 0-0.66903 0.24005-0.77411 0.56741 0.07748-0.0249 0.15973-0.0382 0.24495-0.0382h6.0218c0.44527 0 0.81236 0.36708 0.81236 0.81235v3.5696z" color="#000000" fill="#143441" stroke-width=".79487"/>
</g>
</g>
</svg>
